<svg width="400" height="400" viewBox="0 0 400 400" fill="none" xmlns="http://www.w3.org/2000/svg">
<g clip-path="url(#clip0)">
<path d="M393.333 65.5306C389.652 65.5306 386.667 68.5156 386.667 72.1973V364.6L358.467 357.064C308.356 343.903 255.433 346.227 206.667 363.73V339.932C247.165 324.577 291.445 322.246 333.333 333.265L364.867 341.663C365.443 341.732 366.025 341.732 366.602 341.663C368.066 341.68 369.495 341.211 370.667 340.332C372.321 339.059 373.281 337.087 373.268 334.997V233.265C373.268 229.583 370.283 226.598 366.602 226.598C362.917 226.598 359.935 229.583 359.935 233.265V326.598L336.732 320.397C293.802 309.18 248.49 311.107 206.667 325.931V46.5983C247.165 31.2435 291.445 28.9128 333.333 39.9316L360 46.9987V206.598C360 210.28 362.985 213.265 366.667 213.265C370.348 213.265 373.333 210.28 373.333 206.598V42.1973C373.441 39.0983 371.393 36.3346 368.398 35.5306L336.8 27.3307C291.527 15.3678 243.62 18.099 200 35.1302C156.364 18.1641 108.48 15.4329 63.1999 27.3307L31.6016 35.7975C28.6068 36.6016 26.5592 39.3652 26.6667 42.4642V119.932C26.6667 123.613 29.6517 126.598 33.3333 126.598C37.015 126.598 40 123.613 40 119.932V47.3307L66.6667 40.2637C108.519 29.1374 152.799 31.3542 193.333 46.5983V325.931C151.462 311.182 106.126 309.346 63.1999 320.664L40 326.598V146.598C40 142.917 37.015 139.932 33.3333 139.932C29.6517 139.932 26.6667 142.917 26.6667 146.598V335.531C26.6504 337.617 27.6139 339.593 29.2676 340.866C30.4395 341.745 31.8685 342.214 33.3333 342.197C33.9095 342.262 34.4922 342.262 35.0651 342.197L66.6667 333.597C108.555 322.578 152.835 324.909 193.333 340.264V363.665C144.567 346.159 91.6439 343.835 41.5332 356.999L13.3333 364.6V72.1973C13.3333 68.5156 10.3483 65.5306 6.66667 65.5306C2.98503 65.5306 0 68.5156 0 72.1973V373.265C0.00651042 375.329 0.963542 377.272 2.60091 378.532C4.23828 379.814 6.38672 380.26 8.39844 379.733L45 369.932C95.1628 356.663 148.262 359.867 196.468 379.066L197.399 379.398C198.984 380.029 200.749 380.029 202.334 379.398L203.268 379.066C251.553 359.808 304.753 356.605 355 369.932L391.602 379.932C392.174 379.997 392.757 379.997 393.333 379.932C397.015 379.932 400 376.947 400 373.265V72.1973C400 68.5156 397.015 65.5306 393.333 65.5306V65.5306Z" fill="#FFCCC9"/>
<path d="M346.667 73.265C346.663 70.3808 344.808 67.8255 342.067 66.9303L327.601 62.2656C313.936 57.7995 299.339 56.9954 285.267 59.9316C282.139 60.6022 279.928 63.4017 280 66.5983V126.598C280.062 128.626 281.042 130.514 282.666 131.732C284.313 133.001 286.432 133.486 288.467 133.066C300.14 130.609 312.253 131.253 323.6 134.932L337.933 139.6C338.604 139.805 339.3 139.919 340 139.932C341.409 139.912 342.777 139.469 343.932 138.665C345.658 137.406 346.673 135.397 346.667 133.265V73.265ZM333.333 124.066L327.734 122.266C319.6 119.603 311.094 118.252 302.533 118.265C299.46 118.278 296.387 118.454 293.333 118.799V72.1321C303.457 70.7975 313.75 71.7318 323.467 74.8665L333.333 78.0664V124.066Z" fill="#FFCCC9"/>
<path d="M168.467 186.598C136.79 177.533 103.21 177.533 71.5332 186.598C67.8515 187.591 65.6738 191.383 66.6666 195.065C67.6595 198.747 71.4518 200.924 75.1334 199.932C104.456 191.533 135.544 191.533 164.867 199.932C165.462 200.029 166.071 200.029 166.667 199.932C170.348 200.43 173.737 197.848 174.232 194.163C174.73 190.482 172.148 187.096 168.467 186.598Z" fill="#FFCCC9"/>
<path d="M168.467 219.932C136.79 210.866 103.21 210.866 71.5332 219.932C67.8515 220.924 65.6738 224.717 66.6666 228.398C67.6595 232.08 71.4518 234.258 75.1334 233.265C104.456 224.867 135.544 224.867 164.867 233.265C165.462 233.363 166.071 233.363 166.667 233.265C170.348 233.763 173.737 231.182 174.232 227.497C174.73 223.815 172.148 220.43 168.467 219.932Z" fill="#FFCCC9"/>
<path d="M168.467 253.265C136.79 244.199 103.21 244.199 71.5332 253.265C67.8515 254.258 65.6738 258.05 66.6666 261.732C67.6595 265.413 71.4518 267.591 75.1334 266.598C104.456 258.2 135.544 258.2 164.867 266.598C165.462 266.696 166.071 266.696 166.667 266.598C170.348 267.096 173.737 264.515 174.232 260.83C174.73 257.148 172.148 253.763 168.467 253.265Z" fill="#FFCCC9"/>
<path d="M226.667 86.5983H228.268L254.935 79.9316C258.616 79.0495 260.882 75.3483 260 71.6634C259.118 67.9818 255.417 65.7162 251.732 66.5983L225.065 73.265C221.383 73.7077 218.76 77.0508 219.199 80.7324C219.642 84.4141 222.985 87.041 226.667 86.5983Z" fill="#FFCCC9"/>
<path d="M220 108.2C220.885 111.768 224.495 113.945 228.066 113.066L254.733 106.4C258.359 105.57 260.628 101.96 259.801 98.33C258.971 94.7037 255.361 92.4381 251.732 93.2649L225.065 99.9316C223.271 100.309 221.709 101.409 220.752 102.972C219.792 104.538 219.521 106.426 220 108.2Z" fill="#FFCCC9"/>
<path d="M220 141.533C220.885 145.101 224.495 147.279 228.066 146.4L254.733 139.733C258.359 138.903 260.628 135.293 259.801 131.663C258.971 128.037 255.361 125.771 251.732 126.598L225.065 133.265C223.271 133.643 221.709 134.743 220.752 136.305C219.792 137.871 219.521 139.759 220 141.533Z" fill="#FFCCC9"/>
<path d="M229.401 305.332C230.557 306.136 231.924 306.579 233.333 306.598C234.02 306.693 234.714 306.693 235.4 306.598L249.733 301.93C261.198 298.167 273.451 297.477 285.267 299.932C287.24 300.358 289.297 299.867 290.866 298.597C292.471 297.298 293.382 295.329 293.333 293.265V233.265C293.405 230.068 291.195 227.269 288.066 226.598C274.007 223.617 259.411 224.375 245.732 228.799L231.266 233.464C228.477 234.375 226.611 236.999 226.667 239.932V299.932C226.66 302.064 227.676 304.072 229.401 305.332V305.332ZM240 244.798L249.867 241.598C259.583 238.464 269.876 237.533 280 238.864V285.531C268.418 284.209 256.686 285.391 245.599 288.997L240 290.798V244.798Z" fill="#FFCCC9"/>
<path d="M226.667 175.065C227.669 178.594 231.335 180.648 234.867 179.665C264.189 171.266 295.28 171.266 324.6 179.665C325.267 179.883 325.967 179.974 326.667 179.932C330.348 180.43 333.737 177.848 334.232 174.163C334.73 170.482 332.148 167.096 328.467 166.598C296.79 157.533 263.21 157.533 231.533 166.598C229.73 167.015 228.177 168.164 227.256 169.772C226.331 171.377 226.12 173.294 226.667 175.065Z" fill="#FFCCC9"/>
<path d="M326.667 213.265C330.348 213.763 333.737 211.182 334.232 207.497C334.73 203.815 332.148 200.43 328.467 199.932C296.79 190.866 263.21 190.866 231.533 199.932C227.852 200.924 225.674 204.717 226.667 208.398C227.659 212.08 231.452 214.258 235.133 213.265C264.456 204.867 295.544 204.867 324.867 213.265C325.462 213.363 326.071 213.363 326.667 213.265V213.265Z" fill="#FFCCC9"/>
<path d="M311.732 246.598L338.398 253.265C340.173 253.743 342.061 253.473 343.626 252.513C345.189 251.556 346.289 249.993 346.667 248.2C347.145 246.426 346.875 244.538 345.915 242.972C344.958 241.409 343.395 240.309 341.602 239.932L314.935 233.265C311.25 232.383 307.549 234.648 306.667 238.33C305.785 242.015 308.05 245.716 311.732 246.598Z" fill="#FFCCC9"/>
<path d="M166.667 106.598C170.348 106.598 173.333 103.613 173.333 99.9317V79.9317C173.447 76.8523 171.436 74.0951 168.467 73.265C136.79 64.1993 103.21 64.1993 71.5332 73.265C68.5644 74.0951 66.5527 76.8523 66.6667 79.9317V159.932C66.6667 162.031 67.6562 164.007 69.3327 165.264C70.9961 166.504 73.138 166.898 75.1334 166.331C104.456 157.933 135.544 157.933 164.867 166.331C165.449 166.517 166.055 166.608 166.667 166.598C170.348 166.598 173.333 163.613 173.333 159.932V126.598C173.333 122.917 170.348 119.932 166.667 119.932C162.985 119.932 160 122.917 160 126.598V151.331C133.685 145.199 106.315 145.199 80 151.331V85.0651C106.25 78.3985 133.75 78.3985 160 85.0651V99.9317C160 103.613 162.985 106.598 166.667 106.598Z" fill="#FFCCC9"/>
</g>
<defs>
<clipPath id="clip0">
<rect width="400" height="400" fill="white"/>
</clipPath>
</defs>
</svg>
