<svg width="32" height="32" viewBox="0 0 32 32" fill="none" xmlns="http://www.w3.org/2000/svg">
<g clip-path="url(#clip0)">
<path d="M3.45328 0.39671L3.99272 1.91352C4.01584 1.97846 4.06153 2.02996 4.11922 2.05596L5.46684 2.66309C5.65722 2.7489 5.65722 3.05221 5.46684 3.13796L4.11922 3.74515C4.06153 3.77115 4.01578 3.82259 3.99272 3.88752L3.45328 5.40434C3.37709 5.61865 3.10753 5.61865 3.03134 5.40434L2.49191 3.88752C2.46884 3.82259 2.42309 3.77115 2.36541 3.74515L1.01778 3.13796C0.827406 3.05221 0.827406 2.74884 1.01778 2.66309L2.36541 2.05596C2.42309 2.02996 2.46884 1.97852 2.49191 1.91352L3.03134 0.39671C3.10753 0.18246 3.37709 0.18246 3.45328 0.39671V0.39671Z" fill="#91C4BD"/>
<path d="M29.5254 2.37316L29.9255 3.49828C29.9426 3.54647 29.9766 3.58466 30.0194 3.60391L31.019 4.05428C31.1603 4.1179 31.1603 4.3429 31.019 4.40653L30.0194 4.8569C29.9766 4.87615 29.9426 4.91434 29.9255 4.96253L29.5254 6.08765C29.4689 6.24659 29.269 6.24659 29.2124 6.08765L28.8123 4.96253C28.7952 4.91434 28.7612 4.87615 28.7185 4.8569L27.7189 4.40653C27.5776 4.3429 27.5776 4.1179 27.7189 4.05428L28.7185 3.60391C28.7613 3.58466 28.7952 3.54647 28.8123 3.49828L29.2124 2.37316C29.269 2.21416 29.4688 2.21416 29.5254 2.37316V2.37316Z" fill="#91C4BD"/>
<path d="M13.3006 2.60798C13.3455 2.331 13.1574 2.07006 12.8804 2.02516C12.6034 1.98026 12.3425 2.1684 12.2976 2.44538C12.2527 2.72236 12.4408 2.9833 12.7178 3.0282C12.9948 3.0731 13.2557 2.88496 13.3006 2.60798Z" fill="#91C4BD"/>
<path d="M5.40815 10.911C5.89672 10.851 6.24413 10.4063 6.18411 9.91775C6.12409 9.42921 5.67936 9.08184 5.19079 9.14186C4.70222 9.20189 4.35481 9.64659 4.41483 10.1351C4.47485 10.6237 4.91958 10.971 5.40815 10.911Z" fill="#91C4BD"/>
<path d="M14.0142 14.5766C14.1126 14.1605 13.855 13.7435 13.4389 13.6451C13.0228 13.5467 12.6058 13.8043 12.5074 14.2204C12.4091 14.6365 12.6667 15.0536 13.0827 15.1519C13.4988 15.2503 13.9159 14.9927 14.0142 14.5766Z" fill="#91C4BD"/>
<path d="M21.6596 14.94C21.962 14.6376 21.962 14.1474 21.6597 13.8451C21.3573 13.5427 20.8671 13.5427 20.5648 13.8451C20.2624 14.1474 20.2624 14.6376 20.5648 14.94C20.8671 15.2423 21.3573 15.2423 21.6596 14.94Z" fill="#91C4BD"/>
<path d="M18.8829 14.9711C18.8829 14.7632 18.7144 14.5946 18.5064 14.5946C17.9922 14.5946 17.5739 14.1763 17.5739 13.662C17.5739 13.4541 17.4053 13.2855 17.1974 13.2855C17.1944 13.2855 17.1916 13.2859 17.1886 13.286C17.1857 13.2859 17.1829 13.2855 17.1799 13.2855C16.9719 13.2855 16.8034 13.4541 16.8034 13.662C16.8034 14.1763 16.385 14.5946 15.8708 14.5946C15.6629 14.5946 15.4943 14.7632 15.4943 14.9711C15.4943 15.1738 15.6546 15.3386 15.8552 15.3469C15.9629 16.0261 16.5197 16.5451 17.1887 16.5451C17.8577 16.5451 18.4145 16.026 18.5221 15.3469C18.7227 15.3386 18.8829 15.1738 18.8829 14.9711V14.9711ZM17.1886 15.7921C16.881 15.7921 16.6269 15.526 16.5931 15.1848C16.826 15.0738 17.0294 14.911 17.1886 14.7113C17.3479 14.911 17.5512 15.0738 17.7841 15.1848C17.7502 15.526 17.4962 15.7921 17.1886 15.7921Z" fill="#91C4BD"/>
<path d="M14.3761 25.3119C13.5861 25.312 12.7698 24.7783 12.3473 23.9014C12.2569 23.7141 12.3356 23.4891 12.5229 23.3988C12.7103 23.3085 12.9353 23.3872 13.0256 23.5745C13.4002 24.3518 14.1831 24.7538 14.7707 24.4707C15.3584 24.1875 15.5317 23.3246 15.1571 22.5472C15.0668 22.3599 15.1455 22.1349 15.3328 22.0446C15.5199 21.9544 15.7452 22.0329 15.8354 22.2203C16.3903 23.3717 16.0594 24.6856 15.0977 25.1491C14.8684 25.2596 14.6236 25.3119 14.3761 25.3119V25.3119Z" fill="#91C4BD"/>
<path d="M22.2936 24.694C22.0168 24.694 21.7326 24.6278 21.4557 24.4957C20.954 24.2565 20.5332 23.825 20.271 23.2809C20.1808 23.0936 20.2595 22.8685 20.4468 22.7782C20.6339 22.6882 20.8591 22.7666 20.9494 22.954C21.1374 23.3442 21.4323 23.6504 21.7798 23.816C22.0993 23.9684 22.4242 23.9805 22.6946 23.8502C22.9651 23.7199 23.158 23.4582 23.2378 23.1134C23.3247 22.7384 23.2689 22.317 23.0809 21.9267C22.9906 21.7394 23.0693 21.5144 23.2566 21.4241C23.4438 21.3339 23.669 21.4125 23.7592 21.5998C24.0215 22.1439 24.0969 22.7418 23.9714 23.2833C23.839 23.8549 23.5016 24.2971 23.0215 24.5285C22.7924 24.6389 22.5461 24.694 22.2936 24.694V24.694Z" fill="#91C4BD"/>
<path d="M10.6401 21.9427C10.5569 21.9427 10.4723 21.926 10.391 21.8909C10.073 21.7531 9.92682 21.3837 10.0645 21.0657C10.1741 20.8126 10.2948 20.5634 10.4233 20.325C10.5876 20.0199 10.9683 19.9059 11.2734 20.0703C11.5785 20.2347 11.6926 20.6153 11.5281 20.9204C11.4166 21.1274 11.3116 21.344 11.2163 21.5644C11.1137 21.8011 10.8826 21.9427 10.6401 21.9427V21.9427Z" fill="#91C4BD"/>
<path d="M9.80692 27.0277C9.48761 27.0277 9.21449 26.785 9.18305 26.4606C9.08005 25.3964 9.15555 24.2813 9.40749 23.1463C9.48255 22.8079 9.81773 22.5944 10.156 22.6696C10.4944 22.7448 10.7077 23.0799 10.6327 23.4182C10.4094 24.4241 10.3419 25.4071 10.4322 26.3396C10.4656 26.6846 10.213 26.9913 9.86805 27.0247C9.84755 27.0268 9.82711 27.0277 9.80692 27.0277V27.0277Z" fill="#91C4BD"/>
<path d="M27.2607 27.753C27.3504 27.1163 27.3964 26.4656 27.3964 25.8159C27.3964 24.3912 27.1819 22.9978 26.7588 21.6743C26.2528 20.0913 26.0727 18.4962 26.2238 16.9333C26.2539 16.6213 26.2679 16.3037 26.2656 15.9895C26.2529 14.2575 25.745 12.5846 24.7941 11.1351C24.8784 10.5328 24.9868 9.58002 24.9861 8.66377C24.9848 7.08402 24.6636 6.1942 23.9748 5.86333C23.4435 5.60808 22.4894 5.52083 20.2961 7.57252C20.0704 7.4907 19.8419 7.41914 19.6114 7.3562C19.6573 6.84464 19.5907 6.33439 19.4112 5.83045C19.6393 5.11927 19.5963 4.40552 19.2816 3.70296C19.3649 2.94358 19.3087 2.01264 19.1033 0.726517C19.0633 0.351767 18.7712 0.0518924 18.3931 0.0053299C18.0111 -0.0419826 17.6513 0.18358 17.5251 0.54408C16.9954 1.89008 16.6282 3.07195 16.405 4.14902C15.8488 4.73189 15.5853 5.56014 15.6211 6.6182C15.4707 6.82014 15.3443 7.03583 15.2405 7.26408C14.7724 7.37052 14.3128 7.51389 13.8643 7.69608C11.5829 5.51989 10.5999 5.60127 10.0543 5.86327C9.29001 6.23045 8.97276 7.30339 9.05582 9.23989C9.10901 10.4796 9.30982 11.6271 9.31832 11.6754C9.31888 11.6785 9.31945 11.6815 9.32001 11.6846L9.33039 11.7386C8.61001 13.0575 8.23032 14.5453 8.23032 16.057C8.23032 16.2932 8.23957 16.532 8.25788 16.7665C8.38476 18.3926 8.19326 19.9723 7.68857 21.4618C7.21882 22.8481 6.9807 24.313 6.9807 25.8158C6.9807 26.3848 7.0172 26.9516 7.08651 27.5118C6.57951 27.2292 6.23407 26.6883 6.23407 26.071V24.5291C6.23407 23.3495 5.27432 22.3898 4.0947 22.3898C2.91507 22.3898 1.95532 23.3495 1.95532 24.5291V26.071C1.95532 29.3397 4.6147 31.9991 7.88345 31.9991C7.91139 31.9991 25.6004 31.9738 25.6343 31.9681C27.1293 31.9292 28.3315 30.887 28.3315 29.6106C28.3314 28.857 27.9118 28.1853 27.2607 27.753V27.753ZM3.21032 26.071V25.7353H4.97901V26.071C4.97901 26.3322 5.0142 26.5857 5.07988 26.8271H3.27238C3.23213 26.5808 3.21032 26.3285 3.21032 26.071V26.071ZM4.09463 23.6449C4.58226 23.6449 4.97901 24.0416 4.97901 24.5293V24.9823H3.21032V24.5293C3.21032 24.0416 3.60701 23.6449 4.09463 23.6449ZM7.88338 30.7441C5.8347 30.7441 4.09095 29.4183 3.46182 27.5801H5.40632C5.82651 28.2648 6.52195 28.7654 7.33638 28.9225C7.48126 29.5463 7.66976 30.1555 7.90007 30.7438C7.89451 30.7439 7.88895 30.7441 7.88338 30.7441ZM18.4201 8.53883C18.5141 8.86477 18.4504 9.17646 18.4005 9.41764C18.3972 9.43377 18.3939 9.44933 18.3909 9.46439C18.3239 9.53108 17.9928 9.67489 17.3673 9.63183C16.8822 9.59839 16.5298 9.47527 16.3299 9.36689L18.4201 8.53883ZM18.0602 2.78264C18.0688 3.10983 18.0576 3.42889 18.0153 3.71583C18.0149 3.71877 18.0149 3.72158 18.0145 3.72445C18.0132 3.73414 18.0124 3.74383 18.0115 3.75358L17.7561 3.86664C17.8418 3.51895 17.9426 3.15858 18.0602 2.78264V2.78264ZM17.3961 4.93408C17.44 4.89364 17.4804 4.84914 17.5119 4.7982L18.2341 4.47864C18.3428 4.85345 18.318 5.21783 18.161 5.6012C18.1491 5.63202 18.1381 5.66327 18.1314 5.69564L16.8764 6.24633C16.9035 5.64864 17.0748 5.21627 17.3961 4.93408ZM16.7349 7.23258C16.7719 7.18964 16.8028 7.14145 16.8271 7.09033L18.2906 6.44808C18.4089 6.88808 18.3969 7.32427 18.2541 7.77202C18.2526 7.77658 18.2478 7.79352 18.2467 7.79745L16.1659 8.62177C16.2183 8.07064 16.4061 7.6127 16.7349 7.23258V7.23258ZM25.548 30.715C25.5167 30.715 25.4862 30.718 25.4561 30.7225H18.1744C18.3842 30.391 18.5036 30.0125 18.5036 29.6108C18.5036 28.3098 17.2549 27.2515 15.7201 27.2515C15.3736 27.2515 15.0926 27.5325 15.0926 27.879C15.0926 28.2256 15.3736 28.5065 15.7201 28.5065C16.5486 28.5065 17.2485 29.0122 17.2485 29.6108C17.2485 30.2093 16.5486 30.715 15.7201 30.715C15.6888 30.715 15.6583 30.7181 15.6282 30.7225H9.24857C8.58507 29.2148 8.23576 27.5271 8.23576 25.816C8.23576 24.4504 8.45157 23.121 8.87726 21.8647C9.4367 20.2135 9.64932 18.4655 9.50914 16.6691C9.49332 16.4668 9.48538 16.261 9.48538 16.0571C9.48538 14.6869 9.84751 13.3399 10.5325 12.1618C10.6087 12.0309 10.6349 11.8768 10.6063 11.728L10.5536 11.4536C10.5411 11.3817 10.3641 10.3433 10.3123 9.24539C10.2206 7.29833 10.5964 6.99589 10.5953 6.99577C10.7484 6.94552 11.5726 7.18508 13.2861 8.88483C13.4723 9.06952 13.7536 9.11896 13.9916 9.00883C14.2903 8.87058 14.5951 8.75314 14.9049 8.65495C14.894 8.83127 14.8997 9.29277 14.8997 9.29333C14.9153 10.096 15.7651 10.7125 17.0659 10.8641C17.2497 10.8855 17.4271 10.896 17.5969 10.896C18.6615 10.896 19.4276 10.4846 19.6058 9.78502C19.6088 9.77314 19.6237 9.69977 19.6294 9.67196C19.6741 9.45583 19.7455 9.10908 19.7163 8.70039C19.8791 8.75539 20.0406 8.81527 20.2004 8.88152C20.4322 8.9777 20.6988 8.92658 20.8786 8.75158C22.5052 7.16833 23.2883 6.94777 23.4289 6.99339C23.432 6.99539 23.7395 7.23883 23.7308 8.73371C23.7253 9.68589 23.5948 10.682 23.5176 11.191C23.4936 11.3497 23.5313 11.5118 23.6229 11.6436C24.5193 12.9314 24.9991 14.4374 25.0106 15.9989C25.0126 16.27 25.0004 16.5438 24.9745 16.8128C24.807 18.5461 25.0051 20.3104 25.5634 22.0566C25.9469 23.2564 26.1414 24.5213 26.1414 25.8161C26.1414 26.3102 26.1124 26.8047 26.0553 27.2916C25.8906 27.2658 25.7213 27.2516 25.548 27.2516C25.2014 27.2516 24.9205 27.5325 24.9205 27.8791C24.9205 28.2256 25.2015 28.5066 25.548 28.5066C26.3764 28.5066 27.0764 29.0123 27.0764 29.6108C27.0764 30.2093 26.3764 30.715 25.548 30.715V30.715Z" fill="#91C4BD"/>
</g>
<defs>
<clipPath id="clip0">
<rect width="32" height="32" fill="white"/>
</clipPath>
</defs>
</svg>
