<svg width="400" height="400" viewBox="0 0 400 400" fill="none" xmlns="http://www.w3.org/2000/svg">
<path d="M394.863 268.869L334.75 208.746C349.273 189.609 358.34 166.669 360.665 142.618C363.512 113.101 356.161 83.2795 339.962 58.6427C338.183 55.9388 334.548 55.1881 331.847 56.9673C329.144 58.7464 328.393 62.3811 330.172 65.0849C360.827 111.703 354.397 174.225 314.883 213.742C268.731 259.897 193.643 259.897 147.494 213.742C101.343 167.587 101.343 92.4866 147.494 46.3319C193.643 0.177215 268.734 0.177215 314.868 46.3167L315.188 46.6401C317.471 48.9351 321.179 48.9503 323.473 46.6676C325.771 44.3879 325.784 40.677 323.504 38.3821L323.168 38.0434C272.448 -12.6798 189.926 -12.6798 139.206 38.0434C137.613 39.6364 136.072 41.2599 134.579 42.9139H5.85936C2.62451 42.9139 0 45.5385 0 48.7733V74.6888C0 77.9267 2.62451 80.5512 5.85936 80.5512C9.09727 80.5512 11.7187 77.9267 11.7187 74.6888V54.6357H125.18C120.703 60.9254 116.852 67.5233 113.626 74.35H40.6249C37.3901 74.35 34.7656 76.9715 34.7656 80.2094C34.7656 83.4473 37.3901 86.0688 40.6249 86.0688H108.777C107.095 90.7746 105.694 95.5567 104.571 100.394H40.6249C37.3901 100.394 34.7656 103.015 34.7656 106.253C34.7656 109.488 37.3901 112.112 40.6249 112.112H102.405C101.748 116.864 101.355 121.646 101.224 126.434H40.6249C37.3901 126.434 34.7656 129.059 34.7656 132.297C34.7656 135.532 37.3901 138.156 40.6249 138.156H101.428C102.484 155.179 106.851 172.031 114.544 187.646H104.69C101.452 187.646 98.831 190.271 98.831 193.509V366.97C98.831 370.208 101.452 372.833 104.69 372.833H151.565C154.803 372.833 157.425 370.208 157.425 366.97V237.207C162.701 240.841 168.185 244.046 173.831 246.814V366.97C173.831 370.208 176.455 372.833 179.69 372.833H226.565C229.803 372.833 232.424 370.208 232.424 366.97V260.061C236.993 260.016 241.555 259.738 246.099 259.219V349.731C246.099 352.969 248.721 355.593 251.959 355.593C255.194 355.593 257.818 352.969 257.818 349.731V257.333C276.339 253.488 294.177 245.584 309.893 233.618L369.994 293.728C373.318 297.049 377.734 298.88 382.427 298.88C387.124 298.88 391.54 297.049 394.86 293.728C401.711 286.88 401.714 275.729 394.863 268.869V268.869ZM145.706 361.111H110.55V199.368H121.106C126.175 207.416 132.205 215.027 139.206 222.03C141.317 224.142 143.49 226.159 145.706 228.094V361.111ZM185.553 361.111V251.855C196.917 256.094 208.758 258.688 220.709 259.646V361.111H185.553ZM386.578 285.44C385.47 286.547 383.996 287.158 382.43 287.158C380.865 287.158 379.391 286.547 378.286 285.44L318.926 226.077C320.364 224.762 321.78 223.419 323.168 222.03C324.554 220.645 325.903 219.232 327.218 217.788L386.571 277.154C388.857 279.44 388.86 283.16 386.578 285.44V285.44Z" fill="#FFCCC9"/>
<path d="M251.959 369.138C248.724 369.138 246.1 371.759 246.1 374.997V388.281H11.7188V100.085C11.7188 96.8475 9.09729 94.2261 5.85938 94.2261C2.62451 94.2261 0 96.8475 0 100.085V394.141C0 397.379 2.62451 400 5.85938 400H251.959C255.197 400 257.819 397.379 257.819 394.141V374.997C257.819 371.759 255.197 369.138 251.959 369.138V369.138Z" fill="#FFCCC9"/>
<path d="M25.3906 240.387V366.971C25.3906 370.206 28.0151 372.83 31.25 372.83H78.1281C81.3629 372.83 83.9874 370.206 83.9874 366.971V240.387C83.9874 237.152 81.3629 234.528 78.1281 234.528H31.25C28.0151 234.528 25.3906 237.152 25.3906 240.387V240.387ZM37.1094 246.249H72.2687V361.108H37.1094V246.249Z" fill="#FFCCC9"/>
<path d="M84.4391 164.206C87.677 164.206 90.2985 161.581 90.2985 158.344C90.2985 155.109 87.677 152.484 84.4391 152.484H40.625C37.3901 152.484 34.7656 155.109 34.7656 158.344C34.7656 161.581 37.3901 164.206 40.625 164.206H84.4391Z" fill="#FFCCC9"/>
<path d="M231.189 23.4283C202.673 23.4283 175.891 34.5062 155.78 54.6204C135.669 74.7345 124.591 101.52 124.591 130.038C124.591 158.557 135.669 185.342 155.78 205.457C175.894 225.571 202.673 236.649 231.189 236.649C259.705 236.649 286.484 225.571 306.598 205.457C326.709 185.342 337.784 158.557 337.784 130.038C337.784 101.52 326.709 74.7345 306.598 54.6204C286.484 34.5062 259.705 23.4283 231.189 23.4283V23.4283ZM298.309 197.168C280.411 215.07 256.573 224.927 231.189 224.927C205.801 224.927 181.967 215.07 164.069 197.168C146.167 179.266 136.31 155.426 136.31 130.038C136.31 104.648 146.167 80.8075 164.069 62.9059C182.571 44.4 206.882 35.144 231.189 35.144C255.496 35.144 279.807 44.4 298.309 62.9059C316.208 80.8075 326.065 104.648 326.065 130.038C326.065 155.426 316.208 179.266 298.309 197.168V197.168Z" fill="#FFCCC9"/>
</svg>
