<svg width="400" height="400" viewBox="0 0 400 400" fill="none" xmlns="http://www.w3.org/2000/svg">
<path d="M157.82 280.314C156.309 280.314 154.787 279.794 153.545 278.737L110.812 242.35C109.338 241.093 108.491 239.258 108.491 237.319C108.491 235.385 109.342 233.55 110.812 232.293L153.545 195.906C156.32 193.54 160.488 193.875 162.854 196.65C165.216 199.429 164.884 203.597 162.106 205.959L125.28 237.319L162.106 268.68C164.884 271.046 165.216 275.214 162.854 277.989C161.546 279.525 159.688 280.314 157.82 280.314Z" fill="#FFCCC9"/>
<path d="M242.18 280.314C240.312 280.314 238.454 279.525 237.15 277.989C234.784 275.214 235.119 271.046 237.894 268.68L274.72 237.319L237.894 205.959C235.119 203.597 234.784 199.429 237.15 196.65C239.512 193.875 243.684 193.54 246.455 195.906L289.188 232.293C290.662 233.55 291.509 235.385 291.509 237.319C291.509 239.258 290.662 241.093 289.188 242.35L246.455 278.737C245.213 279.794 243.691 280.314 242.18 280.314V280.314Z" fill="#FFCCC9"/>
<path d="M184.873 307.606C184.419 307.606 183.962 307.558 183.502 307.462C179.934 306.711 177.65 303.206 178.401 299.639L205.034 173.191C205.786 169.623 209.287 167.339 212.857 168.09C216.425 168.842 218.709 172.343 217.958 175.914L191.325 302.362C190.669 305.472 187.928 307.606 184.873 307.606V307.606Z" fill="#FFCCC9"/>
<path d="M355.66 376.496H44.3396C19.8924 376.496 0 356.607 0 332.157V67.9245C0 43.4773 19.8924 23.5849 44.3396 23.5849H355.66C380.108 23.5849 400 43.4773 400 67.9245V332.157C400 356.607 380.108 376.496 355.66 376.496ZM44.3396 36.7924C27.1742 36.7924 13.2075 50.7591 13.2075 67.9245V332.157C13.2075 349.322 27.1742 363.289 44.3396 363.289H355.66C372.826 363.289 386.792 349.322 386.792 332.157V67.9245C386.792 50.7591 372.826 36.7924 355.66 36.7924H44.3396Z" fill="#FFCCC9"/>
<path d="M393.396 129.33H6.60377C2.95548 129.33 0 126.375 0 122.726C0 119.082 2.95548 116.122 6.60377 116.122H393.396C397.045 116.122 400 119.082 400 122.726C400 126.375 397.045 129.33 393.396 129.33Z" fill="#FFCCC9"/>
<path d="M112.832 97.73C101.312 97.73 91.9332 88.3513 91.9332 76.8315C91.9332 65.3081 101.312 55.9331 112.832 55.9331C124.355 55.9331 133.73 65.3081 133.73 76.8315C133.73 88.3513 124.355 97.73 112.832 97.73ZM112.832 69.1407C108.594 69.1407 105.141 72.5899 105.141 76.8315C105.141 81.0731 108.594 84.5224 112.832 84.5224C117.073 84.5224 120.523 81.0731 120.523 76.8315C120.523 72.5899 117.073 69.1407 112.832 69.1407Z" fill="#FFCCC9"/>
<path d="M48.6217 97.5273C37.0983 97.5273 27.7233 88.1523 27.7233 76.6288C27.7233 65.1054 37.0983 55.7304 48.6217 55.7304C60.1451 55.7304 69.5201 65.1054 69.5201 76.6288C69.5201 88.1523 60.1451 97.5273 48.6217 97.5273ZM48.6217 68.938C44.3838 68.938 40.9308 72.3909 40.9308 76.6288C40.9308 80.8704 44.3838 84.3197 48.6217 84.3197C52.8633 84.3197 56.3126 80.8704 56.3126 76.6288C56.3126 72.3909 52.8633 68.938 48.6217 68.938Z" fill="#FFCCC9"/>
<path d="M177.042 97.9289C165.522 97.9289 156.147 88.5539 156.147 77.0305C156.147 65.5107 165.522 56.1357 177.042 56.1357C188.565 56.1357 197.94 65.5107 197.94 77.0305C197.94 88.5539 188.565 97.9289 177.042 97.9289ZM177.042 69.3396C172.804 69.3396 169.354 72.7889 169.354 77.0305C169.354 81.2721 172.804 84.7214 177.042 84.7214C181.283 84.7214 184.732 81.2721 184.732 77.0305C184.732 72.7889 181.283 69.3396 177.042 69.3396Z" fill="#FFCCC9"/>
</svg>
